<svg xmlns="http://www.w3.org/2000/svg" version="1.1" xmlns:xlink="http://www.w3.org/1999/xlink" xmlns:svgjs="http://svgjs.dev/svgjs" width="1500" height="935" viewBox="0 0 1500 935"><g transform="matrix(1,0,0,1,-0.9090909090909918,0.3785425101214628)"><svg viewBox="0 0 396 247" data-background-color="#000000" preserveAspectRatio="xMidYMid meet" height="935" width="1500" xmlns="http://www.w3.org/2000/svg" xmlns:xlink="http://www.w3.org/1999/xlink"><g id="tight-bounds" transform="matrix(1,0,0,1,0.2400000000000091,-0.09999999999999432)"><svg viewBox="0 0 395.52 247.2" height="247.2" width="395.52"><g><svg></svg></g><g><svg viewBox="0 0 395.52 247.2" height="247.2" width="395.52"><g transform="matrix(1,0,0,1,75.54432,101.02881964166808)"><svg viewBox="0 0 244.43135999999998 45.14236071666383" height="45.14236071666383" width="244.43135999999998"><g><svg viewBox="0 0 244.43135999999998 45.14236071666383" height="45.14236071666383" width="244.43135999999998"><g><svg viewBox="0 0 244.43135999999998 45.14236071666383" height="45.14236071666383" width="244.43135999999998"><g><svg viewBox="0 0 244.43135999999998 45.14236071666383" height="45.14236071666383" width="244.43135999999998"><g id="textblocktransform"><svg viewBox="0 0 244.43135999999998 45.14236071666383" height="45.14236071666383" width="244.43135999999998" id="textblock"><g><svg viewBox="0 0 244.43135999999998 29.296229210713438" height="29.296229210713438" width="244.43135999999998"><g transform="matrix(1,0,0,1,0,0)"><svg width="244.43135999999998" viewBox="1.2 -36.55 308.98 37.04" height="29.296229210713438" data-palette-color="#20d760"><path d="M1.2-24.51L1.2-24.51Q1.2-26.68 2.03-28.59 2.86-30.49 4.28-31.92 5.71-33.35 7.62-34.18 9.52-35.01 11.69-35.01L11.69-35.01 27.76-35.01 27.76-28 11.69-28Q10.96-28 10.33-27.73 9.69-27.47 9.22-26.99 8.74-26.51 8.47-25.88 8.2-25.24 8.2-24.51L8.2-24.51Q8.2-23.78 8.47-23.13 8.74-22.49 9.22-22.01 9.69-21.53 10.33-21.26 10.96-21 11.69-21L11.69-21 18.7-21Q20.87-21 22.79-20.18 24.71-19.36 26.14-17.93 27.56-16.5 28.38-14.59 29.2-12.67 29.2-10.5L29.2-10.5Q29.2-8.33 28.38-6.42 27.56-4.52 26.14-3.09 24.71-1.66 22.79-0.83 20.87 0 18.7 0L18.7 0 3.15 0 3.15-7.01 18.7-7.01Q19.43-7.01 20.07-7.28 20.7-7.54 21.18-8.02 21.66-8.5 21.92-9.13 22.19-9.77 22.19-10.5L22.19-10.5Q22.19-11.23 21.92-11.87 21.66-12.5 21.18-12.98 20.7-13.45 20.07-13.72 19.43-13.99 18.7-13.99L18.7-13.99 11.69-13.99Q9.52-13.99 7.62-14.82 5.71-15.65 4.28-17.08 2.86-18.51 2.03-20.42 1.2-22.34 1.2-24.51ZM58.35-13.31L58.35-13.31Q58.35-10.38 57.3-7.85 56.25-5.32 54.44-3.48 52.63-1.64 50.21-0.57 47.78 0.49 44.99 0.49L44.99 0.49Q42.23 0.49 39.8-0.57 37.38-1.64 35.56-3.48 33.74-5.32 32.69-7.85 31.64-10.38 31.64-13.31L31.64-13.31Q31.64-16.28 32.69-18.82 33.74-21.36 35.56-23.21 37.38-25.05 39.8-26.1 42.23-27.15 44.99-27.15L44.99-27.15Q47.78-27.15 50.21-26.16 52.63-25.17 54.44-23.35 56.25-21.53 57.3-18.98 58.35-16.43 58.35-13.31ZM51.63-13.31L51.63-13.31Q51.63-14.92 51.11-16.22 50.58-17.53 49.68-18.47 48.78-19.41 47.57-19.91 46.36-20.41 44.99-20.41L44.99-20.41Q43.63-20.41 42.42-19.91 41.21-19.41 40.32-18.47 39.43-17.53 38.91-16.22 38.4-14.92 38.4-13.31L38.4-13.31Q38.4-11.79 38.91-10.5 39.43-9.2 40.32-8.25 41.21-7.3 42.42-6.75 43.63-6.2 44.99-6.2L44.99-6.2Q46.36-6.2 47.57-6.71 48.78-7.23 49.68-8.15 50.58-9.08 51.11-10.4 51.63-11.72 51.63-13.31ZM83.44 0L81.25-3.05Q80.44-2.32 79.52-1.67 78.61-1.03 77.61-0.55 76.61-0.07 75.54 0.21 74.48 0.49 73.38 0.49L73.38 0.49Q70.97 0.49 68.84-0.37 66.72-1.22 65.12-2.8 63.52-4.37 62.6-6.63 61.69-8.89 61.69-11.69L61.69-11.69 61.69-26.15 68.33-26.15 68.33-11.69Q68.33-10.38 68.73-9.34 69.14-8.3 69.82-7.59 70.5-6.88 71.42-6.52 72.33-6.15 73.38-6.15L73.38-6.15Q74.41-6.15 75.32-6.63 76.24-7.1 76.92-7.89 77.61-8.67 78-9.66 78.39-10.64 78.39-11.69L78.39-11.69 78.39-26.15 85.05-26.15 85.05 0 83.44 0ZM96.79-14.94L96.79 0 90.13 0 90.13-26.15 91.74-26.15 93.94-23.61Q95.55-25.07 97.59-25.87 99.63-26.66 101.85-26.66L101.85-26.66Q104.24-26.66 106.36-25.74 108.49-24.83 110.08-23.23 111.66-21.63 112.58-19.49 113.49-17.36 113.49-14.94L113.49-14.94 113.49 0 106.83 0 106.83-14.94Q106.83-15.97 106.44-16.88 106.05-17.8 105.36-18.48 104.68-19.17 103.78-19.56 102.87-19.95 101.85-19.95L101.85-19.95Q100.8-19.95 99.87-19.56 98.94-19.17 98.26-18.48 97.58-17.8 97.18-16.88 96.79-15.97 96.79-14.94L96.79-14.94ZM143.5-36.55L143.5 0 141.88 0 139.3-3.59Q138.34-2.73 137.28-1.99 136.22-1.25 135.05-0.7 133.88-0.15 132.64 0.17 131.41 0.49 130.14 0.49L130.14 0.49Q127.38 0.49 124.95-0.55 122.52-1.59 120.71-3.43 118.89-5.27 117.84-7.8 116.79-10.33 116.79-13.31L116.79-13.31Q116.79-16.26 117.84-18.8 118.89-21.34 120.71-23.19 122.52-25.05 124.95-26.1 127.38-27.15 130.14-27.15L130.14-27.15Q131.02-27.15 131.96-27 132.9-26.86 133.79-26.53 134.68-26.2 135.46-25.66 136.24-25.12 136.78-24.34L136.78-24.34 136.78-36.55 143.5-36.55ZM136.78-13.31L136.78-13.31Q136.78-14.67 136.26-15.95 135.73-17.24 134.83-18.23 133.93-19.21 132.72-19.81 131.51-20.41 130.14-20.41L130.14-20.41Q128.77-20.41 127.57-19.92 126.36-19.43 125.47-18.52 124.57-17.6 124.06-16.28 123.55-14.97 123.55-13.31L123.55-13.31Q123.55-11.87 124.06-10.57 124.57-9.28 125.47-8.3 126.36-7.32 127.57-6.76 128.77-6.2 130.14-6.2L130.14-6.2Q131.51-6.2 132.72-6.8 133.93-7.4 134.83-8.39 135.73-9.38 136.26-10.66 136.78-11.94 136.78-13.31ZM156.29-13.99L156.29 0 149.28 0 149.28-35.01 156.29-35.01 156.29-21 170.28-21 170.28-35.01 177.28-35.01 177.28 0 170.28 0 170.28-13.99 156.29-13.99ZM207.99-26.1L207.99 0 206.38 0 203.79-3.59Q202.84-2.73 201.78-1.99 200.72-1.25 199.55-0.7 198.37-0.15 197.14 0.17 195.91 0.49 194.64 0.49L194.64 0.49Q191.88 0.49 189.45-0.44 187.02-1.37 185.2-3.14 183.38-4.91 182.33-7.47 181.28-10.03 181.28-13.31L181.28-13.31Q181.28-16.36 182.33-18.91 183.38-21.46 185.2-23.29 187.02-25.12 189.45-26.14 191.88-27.15 194.64-27.15L194.64-27.15Q195.91-27.15 197.15-26.83 198.4-26.51 199.57-25.95 200.74-25.39 201.8-24.63 202.87-23.88 203.79-23L203.79-23 206.38-26.1 207.99-26.1ZM201.28-13.31L201.28-13.31Q201.28-14.67 200.75-15.95 200.23-17.24 199.33-18.23 198.42-19.21 197.21-19.81 196.01-20.41 194.64-20.41L194.64-20.41Q193.27-20.41 192.06-19.95 190.85-19.48 189.96-18.58 189.07-17.68 188.56-16.35 188.05-15.01 188.05-13.31L188.05-13.31Q188.05-11.6 188.56-10.27 189.07-8.94 189.96-8.03 190.85-7.13 192.06-6.67 193.27-6.2 194.64-6.2L194.64-6.2Q196.01-6.2 197.21-6.8 198.42-7.4 199.33-8.39 200.23-9.38 200.75-10.66 201.28-11.94 201.28-13.31ZM219.73-14.4L219.73 0 213.07 0 213.07-26.15 214.68-26.15 216.88-23.05Q218.49-24.51 220.54-25.31 222.59-26.1 224.79-26.1L224.79-26.1 230.67-26.1 230.67-19.46 224.79-19.46Q223.74-19.46 222.81-19.07 221.88-18.68 221.2-17.99 220.51-17.31 220.12-16.38 219.73-15.45 219.73-14.4L219.73-14.4ZM259.94-13.31L259.94-13.31Q259.94-10.23 258.89-7.69 257.84-5.15 256.03-3.33 254.23-1.51 251.8-0.51 249.37 0.49 246.59 0.49L246.59 0.49Q243.83 0.49 241.4-0.54 238.97-1.56 237.15-3.39 235.33-5.22 234.28-7.75 233.23-10.28 233.23-13.31L233.23-13.31 233.23-36.55 239.92-36.55 239.92-24.34Q240.46-25.02 241.23-25.56 242-26.1 242.89-26.44 243.78-26.78 244.73-26.97 245.68-27.15 246.59-27.15L246.59-27.15Q249.37-27.15 251.8-26.11 254.23-25.07 256.03-23.22 257.84-21.36 258.89-18.84 259.94-16.31 259.94-13.31ZM253.23-13.31L253.23-13.31Q253.23-14.82 252.7-16.13 252.18-17.43 251.27-18.38 250.37-19.34 249.16-19.87 247.95-20.41 246.59-20.41L246.59-20.41Q245.22-20.41 244.01-19.81 242.8-19.21 241.9-18.23 241-17.24 240.48-15.95 239.97-14.67 239.97-13.31L239.97-13.31Q239.97-11.79 240.48-10.5 241-9.2 241.9-8.25 242.8-7.3 244.01-6.75 245.22-6.2 246.59-6.2L246.59-6.2Q247.95-6.2 249.16-6.75 250.37-7.3 251.27-8.25 252.18-9.2 252.7-10.5 253.23-11.79 253.23-13.31ZM288.89-13.31L288.89-13.31Q288.89-10.38 287.84-7.85 286.79-5.32 284.99-3.48 283.18-1.64 280.75-0.57 278.32 0.49 275.54 0.49L275.54 0.49Q272.78 0.49 270.35-0.57 267.92-1.64 266.1-3.48 264.28-5.32 263.23-7.85 262.18-10.38 262.18-13.31L262.18-13.31Q262.18-16.28 263.23-18.82 264.28-21.36 266.1-23.21 267.92-25.05 270.35-26.1 272.78-27.15 275.54-27.15L275.54-27.15Q278.32-27.15 280.75-26.16 283.18-25.17 284.99-23.35 286.79-21.53 287.84-18.98 288.89-16.43 288.89-13.31ZM282.18-13.31L282.18-13.31Q282.18-14.92 281.65-16.22 281.13-17.53 280.23-18.47 279.32-19.41 278.11-19.91 276.91-20.41 275.54-20.41L275.54-20.41Q274.17-20.41 272.96-19.91 271.75-19.41 270.86-18.47 269.97-17.53 269.46-16.22 268.95-14.92 268.95-13.31L268.95-13.31Q268.95-11.79 269.46-10.5 269.97-9.2 270.86-8.25 271.75-7.3 272.96-6.75 274.17-6.2 275.54-6.2L275.54-6.2Q276.91-6.2 278.11-6.71 279.32-7.23 280.23-8.15 281.13-9.08 281.65-10.4 282.18-11.72 282.18-13.31ZM299.24-14.4L299.24 0 292.58 0 292.58-26.15 294.19-26.15 296.39-23.05Q298-24.51 300.05-25.31 302.1-26.1 304.3-26.1L304.3-26.1 310.18-26.1 310.18-19.46 304.3-19.46Q303.25-19.46 302.32-19.07 301.39-18.68 300.71-17.99 300.02-17.31 299.63-16.38 299.24-15.45 299.24-14.4L299.24-14.4Z" opacity="1" transform="matrix(1,0,0,1,0,0)" fill="#20d760" class="wordmark-text-0" data-fill-palette-color="primary" id="text-0"></path></svg></g></svg></g><g transform="matrix(1,0,0,1,0,36.21236581786182)"><svg viewBox="0 0 143.50565145599998 8.92999489880201" height="8.92999489880201" width="143.50565145599998"><g transform="matrix(1,0,0,1,0,0)"><svg width="143.50565145599998" viewBox="0 -29.45 585.76 36.453424999999996" height="8.92999489880201" data-palette-color="#20d760"><path d="M24.25 0L14.6 0 14.6-12.15 0-29.4 12.05-29.4 17-22.55 19.3-18.9 19.8-18.9 22.1-22.55 26.95-29.4 39-29.4 37.05-26.4 24.25-11.95 24.25 0ZM64.95 0L50.35 0Q45.05 0 42.62-2.38 40.2-4.75 40.2-9.95L40.2-9.95 40.2-19.5Q40.2-24.6 42.6-27 45-29.4 50.35-29.4L50.35-29.4 64.95-29.4Q70.2-29.4 72.62-27 75.05-24.6 75.05-19.5L75.05-19.5 75.05-9.95Q75.05-4.75 72.6-2.38 70.15 0 64.95 0L64.95 0ZM53.8-6.8L53.8-6.8 61.55-6.8Q65.45-6.8 65.45-10.35L65.45-10.35 65.45-19.1Q65.45-22.6 61.55-22.6L61.55-22.6 53.8-22.6Q51.8-22.6 50.8-21.8 49.8-21 49.8-19.1L49.8-19.1 49.8-10.35Q49.8-8.5 50.8-7.65 51.8-6.8 53.8-6.8ZM105.5 0.5L91.95 0.5Q86.95 0.5 84.37-1.85 81.8-4.2 81.8-9.45L81.8-9.45 81.8-29.4 91.55-29.4 91.55-10.35Q91.55-8 92.7-7.2 93.85-6.4 95.55-6.4L95.55-6.4 102-6.4Q103.6-6.4 104.8-7.23 106-8.05 106-10.35L106-10.35 106-29.4 115.6-29.4 115.6-9.45Q115.6-4.2 113.07-1.85 110.55 0.5 105.5 0.5L105.5 0.5ZM155.29 0.5L155.29 0.5Q153.29 0.5 150.84-0.13 148.39-0.75 145.99-3.2L145.99-3.2 143.89-5.3Q142.39-6.8 141.02-7.75 139.64-8.7 137.89-9.18 136.14-9.65 133.49-9.65L133.49-9.65 133.09-9.65 133.09 0 123.34 0 123.34-25.4 122.84-29.45 145.99-29.45Q149.19-29.45 151.17-28.68 153.14-27.9 154.22-26.63 155.29-25.35 155.69-23.75 156.09-22.15 156.09-20.5L156.09-20.5 156.09-19.55Q156.09-16.55 154.57-14.18 153.04-11.8 149.74-10.8L149.74-10.8Q150.99-10.05 152.12-9.28 153.24-8.5 154.69-7.65L154.69-7.65Q156.34-6.7 157.77-6.28 159.19-5.85 160.14-5.75 161.09-5.65 161.24-5.65L161.24-5.65 159.74 0Q159.14 0.15 157.92 0.33 156.69 0.5 155.29 0.5ZM138.89-16.3L138.89-16.3Q140.14-16.3 141.32-16.35 142.49-16.4 143.44-16.5L143.44-16.5Q145.14-16.7 145.77-17.57 146.39-18.45 146.39-19.7L146.39-19.7 146.39-20.25Q146.39-21.35 145.77-21.95 145.14-22.55 143.49-22.55L143.49-22.55 133.09-22.55 133.09-16.5Q134.34-16.45 135.84-16.38 137.34-16.3 138.89-16.3ZM186.79 0L177.24 0 177.24-25.4 176.74-29.4 188.84-29.4 197.64-11.9 206.64-29.4 218.09-29.4 218.09 0 208.54 0 208.54-16.85 207.99-16.85 205.89-11.45 202.24-3 193.14-3 189.34-11.45 187.29-16.85 186.79-16.85 186.79 0ZM249.04 0.5L235.49 0.5Q230.49 0.5 227.91-1.85 225.34-4.2 225.34-9.45L225.34-9.45 225.34-29.4 235.09-29.4 235.09-10.35Q235.09-8 236.24-7.2 237.39-6.4 239.09-6.4L239.09-6.4 245.54-6.4Q247.14-6.4 248.34-7.23 249.54-8.05 249.54-10.35L249.54-10.35 249.54-29.4 259.14-29.4 259.14-9.45Q259.14-4.2 256.61-1.85 254.09 0.5 249.04 0.5L249.04 0.5ZM290.58 0L272.03 0Q268.63 0 267.03-0.3 265.43-0.6 265.43-1L265.43-1 268.43-7.45Q269.58-7.25 273.18-7.08 276.78-6.9 282.53-6.9L282.53-6.9 286.48-6.9Q288.23-6.9 288.83-7.4 289.43-7.9 289.43-8.85L289.43-8.85 289.43-9.35Q289.43-10.55 288.83-11 288.23-11.45 286.48-11.45L286.48-11.45 275.03-11.45Q269.98-11.45 267.68-13.33 265.38-15.2 265.38-19.45L265.38-19.45 265.38-21.25Q265.38-23.45 266.21-25.3 267.03-27.15 269.03-28.28 271.03-29.4 274.53-29.4L274.53-29.4 291.13-29.4Q294.18-29.4 296.21-29.05 298.23-28.7 298.23-28.3L298.23-28.3 296.73-22.1Q295.33-22.25 291.46-22.43 287.58-22.6 281.63-22.6L281.63-22.6 278.03-22.65Q276.48-22.65 275.83-22.23 275.18-21.8 275.13-20.65L275.13-20.65 275.13-20.3Q275.13-19.15 275.83-18.7 276.53-18.25 278.08-18.25L278.08-18.25 289.08-18.25Q292.28-18.25 294.53-17.6 296.78-16.95 297.98-15.23 299.18-13.5 299.18-10.15L299.18-10.15 299.18-8.35Q299.18-4.6 297.26-2.3 295.33 0 290.58 0L290.58 0ZM315.78 0L306.18 0 306.18-29.4 315.78-29.4 315.78 0ZM346.33 0L333.43 0Q328.08 0 325.68-2.35 323.28-4.7 323.28-9.95L323.28-9.95 323.28-19.1Q323.28-24.5 325.93-26.98 328.58-29.45 333.43-29.45L333.43-29.45 348.03-29.45Q351.48-29.45 353.3-29.08 355.13-28.7 355.13-28.3L355.13-28.3 353.58-22.05Q352.33-22.2 348.7-22.38 345.08-22.55 339.58-22.55L339.58-22.55 337.03-22.55Q334.68-22.55 333.85-21.68 333.03-20.8 333.03-19L333.03-19 333.03-10.45Q333.03-8.75 333.75-7.83 334.48-6.9 337.03-6.9L337.03-6.9 339.08-6.9Q346.23-6.9 349.98-7.08 353.73-7.25 354.48-7.45L354.48-7.45 357.53-2.05Q357.53-1.8 356.5-1.3 355.48-0.8 353.05-0.4 350.63 0 346.33 0L346.33 0ZM364.08 6.9L364.08 6.9Q363.03 7.2 362.85 6.63 362.68 6.05 363.03 5.45L363.03 5.45Q363.43 4.85 364.08 3.15 364.73 1.45 364.98-0.2L364.98-0.2Q363.53-0.55 362.53-1.35 361.53-2.15 361.53-4.45L361.53-4.45Q361.53-6.65 362.85-7.65 364.18-8.65 366.58-8.65L366.58-8.65Q369.28-8.65 370.75-7.58 372.23-6.5 372.23-3.9L372.23-3.9Q372.23-1.9 371.4-0.08 370.58 1.75 369.3 3.2 368.03 4.65 366.63 5.63 365.23 6.6 364.08 6.9ZM411.47 0L401.82 0 401.82-12.15 387.22-29.4 399.27-29.4 404.22-22.55 406.52-18.9 407.02-18.9 409.32-22.55 414.17-29.4 426.22-29.4 424.27-26.4 411.47-11.95 411.47 0ZM452.17 0L437.57 0Q432.27 0 429.84-2.38 427.42-4.75 427.42-9.95L427.42-9.95 427.42-19.5Q427.42-24.6 429.82-27 432.22-29.4 437.57-29.4L437.57-29.4 452.17-29.4Q457.42-29.4 459.84-27 462.27-24.6 462.27-19.5L462.27-19.5 462.27-9.95Q462.27-4.75 459.82-2.38 457.37 0 452.17 0L452.17 0ZM441.02-6.8L441.02-6.8 448.77-6.8Q452.67-6.8 452.67-10.35L452.67-10.35 452.67-19.1Q452.67-22.6 448.77-22.6L448.77-22.6 441.02-22.6Q439.02-22.6 438.02-21.8 437.02-21 437.02-19.1L437.02-19.1 437.02-10.35Q437.02-8.5 438.02-7.65 439.02-6.8 441.02-6.8ZM492.72 0.5L479.17 0.5Q474.17 0.5 471.59-1.85 469.02-4.2 469.02-9.45L469.02-9.45 469.02-29.4 478.77-29.4 478.77-10.35Q478.77-8 479.92-7.2 481.07-6.4 482.77-6.4L482.77-6.4 489.22-6.4Q490.82-6.4 492.02-7.23 493.22-8.05 493.22-10.35L493.22-10.35 493.22-29.4 502.82-29.4 502.82-9.45Q502.82-4.2 500.29-1.85 497.77 0.5 492.72 0.5L492.72 0.5ZM542.51 0.5L542.51 0.5Q540.51 0.5 538.06-0.13 535.61-0.75 533.21-3.2L533.21-3.2 531.11-5.3Q529.61-6.8 528.24-7.75 526.86-8.7 525.11-9.18 523.36-9.65 520.71-9.65L520.71-9.65 520.31-9.65 520.31 0 510.56 0 510.56-25.4 510.06-29.45 533.21-29.45Q536.41-29.45 538.39-28.68 540.36-27.9 541.44-26.63 542.51-25.35 542.91-23.75 543.31-22.15 543.31-20.5L543.31-20.5 543.31-19.55Q543.31-16.55 541.79-14.18 540.26-11.8 536.96-10.8L536.96-10.8Q538.21-10.05 539.34-9.28 540.46-8.5 541.91-7.65L541.91-7.65Q543.56-6.7 544.99-6.28 546.41-5.85 547.36-5.75 548.31-5.65 548.46-5.65L548.46-5.65 546.96 0Q546.36 0.15 545.14 0.33 543.91 0.5 542.51 0.5ZM526.11-16.3L526.11-16.3Q527.36-16.3 528.54-16.35 529.71-16.4 530.66-16.5L530.66-16.5Q532.36-16.7 532.99-17.57 533.61-18.45 533.61-19.7L533.61-19.7 533.61-20.25Q533.61-21.35 532.99-21.95 532.36-22.55 530.71-22.55L530.71-22.55 520.31-22.55 520.31-16.5Q521.56-16.45 523.06-16.38 524.56-16.3 526.11-16.3ZM577.16 0L558.61 0Q555.21 0 553.61-0.3 552.01-0.6 552.01-1L552.01-1 555.01-7.45Q556.16-7.25 559.76-7.08 563.36-6.9 569.11-6.9L569.11-6.9 573.06-6.9Q574.81-6.9 575.41-7.4 576.01-7.9 576.01-8.85L576.01-8.85 576.01-9.35Q576.01-10.55 575.41-11 574.81-11.45 573.06-11.45L573.06-11.45 561.61-11.45Q556.56-11.45 554.26-13.33 551.96-15.2 551.96-19.45L551.96-19.45 551.96-21.25Q551.96-23.45 552.79-25.3 553.61-27.15 555.61-28.28 557.61-29.4 561.11-29.4L561.11-29.4 577.71-29.4Q580.76-29.4 582.79-29.05 584.81-28.7 584.81-28.3L584.81-28.3 583.31-22.1Q581.91-22.25 578.04-22.43 574.16-22.6 568.21-22.6L568.21-22.6 564.61-22.65Q563.06-22.65 562.41-22.23 561.76-21.8 561.71-20.65L561.71-20.65 561.71-20.3Q561.71-19.15 562.41-18.7 563.11-18.25 564.66-18.25L564.66-18.25 575.66-18.25Q578.86-18.25 581.11-17.6 583.36-16.95 584.56-15.23 585.76-13.5 585.76-10.15L585.76-10.15 585.76-8.35Q585.76-4.6 583.84-2.3 581.91 0 577.16 0L577.16 0Z" opacity="1" transform="matrix(1,0,0,1,0,0)" fill="#20d760" class="slogan-text-1" data-fill-palette-color="secondary" id="text-1"></path></svg></g></svg></g></svg></g></svg></g></svg></g></svg></g></svg></g><g><path d="M245.816 0c68.262 0 123.6 55.338 123.6 123.6 0 68.262-55.338 123.6-123.6 123.6-59.333 0-108.902-41.807-120.855-97.571h1.352c11.93 55.028 60.902 96.25 119.503 96.25 67.533 0 122.279-54.746 122.279-122.279 0-67.533-54.746-122.279-122.279-122.279-58.6 0-107.573 41.222-119.503 96.25l-1.352 0c11.953-55.763 61.521-97.571 120.855-97.571z" fill="#20d760" stroke="transparent" data-fill-palette-color="tertiary"></path></g></svg></g><defs></defs></svg><rect width="395.52" height="247.2" fill="none" stroke="none" visibility="hidden"></rect></g></svg></g></svg>